<svg width="7" height="11" viewBox="0 0 7 11" fill="none" xmlns="http://www.w3.org/2000/svg">
<path d="M1.5 10.7428C1.36839 10.7436 1.23793 10.7184 1.11609 10.6686C0.994256 10.6189 0.88344 10.5455 0.79 10.4528C0.696272 10.3599 0.621877 10.2493 0.571109 10.1274C0.52034 10.0056 0.494202 9.87486 0.494202 9.74285C0.494202 9.61084 0.52034 9.48013 0.571109 9.35827C0.621877 9.23641 0.696272 9.12581 0.79 9.03285L4.1 5.74285L0.92 2.43285C0.733749 2.24549 0.629208 1.99203 0.629208 1.72785C0.629208 1.46366 0.733749 1.21021 0.92 1.02285C1.01296 0.929121 1.12356 0.854726 1.24542 0.803957C1.36728 0.753189 1.49799 0.727051 1.63 0.727051C1.76201 0.727051 1.89272 0.753189 2.01458 0.803957C2.13644 0.854726 2.24704 0.929121 2.34 1.02285L6.2 5.02285C6.38323 5.20978 6.48586 5.4611 6.48586 5.72285C6.48586 5.9846 6.38323 6.23592 6.2 6.42285L2.2 10.4228C2.11024 10.5198 2.00217 10.598 1.88202 10.6529C1.76187 10.7078 1.63203 10.7384 1.5 10.7428Z" fill="#3671E9"/>
</svg>
